<svg width="17" height="8" viewBox="0 0 17 8" fill="none" xmlns="http://www.w3.org/2000/svg">
<path d="M16.0823 0.296245C15.7257 -0.0756697 15.1212 -0.100795 14.7321 0.240127L8.3335 5.848L1.93485 0.240127C1.57823 -0.0723848 1.04056 -0.0773155 0.678736 0.210502L0.584682 0.296245C0.228053 0.668159 0.254335 1.24603 0.643385 1.58695L7.68776 7.75988C7.69226 7.76382 7.69678 7.7677 7.70133 7.77155L7.62906 7.70376C7.66917 7.74559 7.71241 7.78302 7.75812 7.81605C7.7751 7.82819 7.79226 7.83975 7.80969 7.8507C7.82734 7.86187 7.84558 7.87249 7.86411 7.88248C7.88101 7.89155 7.89777 7.89996 7.91471 7.90787C7.93472 7.9172 7.95541 7.92598 7.97635 7.93403C7.99489 7.9412 8.01367 7.94777 8.03259 7.95376C8.05134 7.95962 8.07005 7.96493 8.08889 7.96968C8.10982 7.97503 8.13096 7.97963 8.15221 7.98354C8.17404 7.98748 8.19602 7.99077 8.21807 7.99332C8.2341 7.99523 8.25043 7.99672 8.26678 7.9978C8.2893 7.99927 8.31168 8.00001 8.33407 8C8.35598 7.99998 8.37802 7.99924 8.40002 7.99778C8.41656 7.99672 8.4329 7.99523 8.44919 7.99335C8.47098 7.99077 8.49295 7.98748 8.51479 7.98346C8.53603 7.97963 8.55717 7.97503 8.57817 7.96974C8.59694 7.96493 8.61565 7.95962 8.6342 7.95376C8.65333 7.94777 8.6721 7.9412 8.69069 7.93405C8.71158 7.92598 8.73227 7.9172 8.75268 7.90769C8.76922 7.89996 8.78598 7.89155 8.80253 7.88262C8.82141 7.87249 8.83965 7.86187 8.85758 7.85062C8.87474 7.83975 8.89189 7.82819 8.90873 7.81603C8.95459 7.78302 8.99783 7.74559 9.03793 7.70376L8.96566 7.77155C8.97021 7.7677 8.97474 7.76382 8.97923 7.75988L16.0236 1.58695C16.4127 1.24603 16.4389 0.668159 16.0823 0.296245Z" fill="#F4F2FA"/>
</svg>
