<svg width="32" height="32" viewBox="0 0 32 32" fill="none" xmlns="http://www.w3.org/2000/svg">
<g clip-path="url(#clip0_1863_100)">
<path d="M27.7099 26.2999L24.4499 22.9999C25.8867 21.3035 26.7757 19.2116 26.9999 16.9999H29.9999C30.2651 16.9999 30.5195 16.8945 30.707 16.707C30.8945 16.5195 30.9999 16.2651 30.9999 15.9999C30.9999 15.7347 30.8945 15.4803 30.707 15.2928C30.5195 15.1052 30.2651 14.9999 29.9999 14.9999H26.9999C26.79 12.7937 25.9186 10.7024 24.4999 8.99989L27.7099 5.69989C28.3484 6.00567 29.0745 6.07578 29.7597 5.89782C30.4449 5.71987 31.0452 5.30532 31.4542 4.72749C31.8633 4.14966 32.0548 3.44578 31.9949 2.74036C31.935 2.03494 31.6276 1.37343 31.127 0.872825C30.6264 0.372222 29.9648 0.0647883 29.2594 0.00489876C28.554 -0.0549908 27.8501 0.136523 27.2723 0.545568C26.6945 0.954612 26.2799 1.55483 26.102 2.24006C25.924 2.92529 25.9941 3.65137 26.2999 4.28989L22.9999 7.54989C21.2974 6.13118 19.2061 5.2598 16.9999 5.04989V1.99989C16.9999 1.73467 16.8945 1.48032 16.707 1.29278C16.5195 1.10525 16.2651 0.999889 15.9999 0.999889C15.7347 0.999889 15.4803 1.10525 15.2928 1.29278C15.1052 1.48032 14.9999 1.73467 14.9999 1.99989V5.04989C12.7937 5.2598 10.7024 6.13118 8.99989 7.54989L5.69989 4.28989C6.00567 3.65137 6.07578 2.92529 5.89782 2.24006C5.71987 1.55483 5.30532 0.954612 4.72749 0.545568C4.14966 0.136523 3.44578 -0.0549908 2.74036 0.00489876C2.03494 0.0647883 1.37343 0.372222 0.872825 0.872825C0.372222 1.37343 0.0647883 2.03494 0.00489876 2.74036C-0.0549908 3.44578 0.136523 4.14966 0.545568 4.72749C0.954612 5.30532 1.55483 5.71987 2.24006 5.89782C2.92529 6.07578 3.65137 6.00567 4.28989 5.69989L7.54989 8.99989C6.13118 10.7024 5.2598 12.7937 5.04989 14.9999H1.99989C1.73467 14.9999 1.48032 15.1052 1.29278 15.2928C1.10525 15.4803 0.999889 15.7347 0.999889 15.9999C0.999889 16.2651 1.10525 16.5195 1.29278 16.707C1.48032 16.8945 1.73467 16.9999 1.99989 16.9999H5.05989C5.25666 19.2057 6.12186 21.2989 7.53989 22.9999L4.28989 26.2999C3.65137 25.9941 2.92529 25.924 2.24006 26.102C1.55483 26.2799 0.954612 26.6945 0.545568 27.2723C0.136523 27.8501 -0.0549908 28.554 0.00489876 29.2594C0.0647883 29.9648 0.372222 30.6264 0.872825 31.127C1.37343 31.6276 2.03494 31.935 2.74036 31.9949C3.44578 32.0548 4.14966 31.8633 4.72749 31.4542C5.30532 31.0452 5.71987 30.4449 5.89782 29.7597C6.07578 29.0745 6.00567 28.3484 5.69989 27.7099L8.99989 24.4399C9.14989 24.5599 9.27989 24.6899 9.42989 24.7999C9.53495 24.8787 9.65449 24.936 9.78171 24.9686C9.90892 25.0012 10.0413 25.0084 10.1713 24.9898C10.3013 24.9713 10.4264 24.9273 10.5394 24.8604C10.6524 24.7935 10.7511 24.7049 10.8299 24.5999C10.9087 24.4948 10.966 24.3753 10.9986 24.2481C11.0312 24.1209 11.0384 23.9885 11.0198 23.8585C11.0013 23.7285 10.9573 23.6034 10.8904 23.4904C10.8235 23.3774 10.7349 23.2787 10.6299 23.1999C9.50196 22.3691 8.58555 21.2843 7.9549 20.0335C7.32425 18.7826 6.99708 17.4008 6.99989 15.9999C7.00027 14.1427 7.57519 12.3311 8.6458 10.8135C9.71641 9.29598 11.2303 8.14679 12.9798 7.52358C14.7293 6.90036 16.6288 6.83365 18.4177 7.33257C20.2066 7.8315 21.7974 8.87164 22.9718 10.3103C24.1463 11.749 24.8469 13.5158 24.9776 15.3684C25.1083 17.221 24.6626 19.0687 23.7018 20.658C22.7409 22.2473 21.3119 23.5005 19.6108 24.2456C17.9096 24.9907 16.0196 25.1913 14.1999 24.8199C14.0686 24.7936 13.9334 24.7935 13.802 24.8195C13.6706 24.8455 13.5456 24.8971 13.4342 24.9714C13.3228 25.0456 13.2271 25.1412 13.1525 25.2524C13.078 25.3637 13.0262 25.4886 12.9999 25.6199C12.9736 25.7512 12.9735 25.8864 12.9995 26.0178C13.0255 26.1492 13.0771 26.2741 13.1514 26.3856C13.2256 26.497 13.3212 26.5927 13.4324 26.6672C13.5437 26.7418 13.6686 26.7936 13.7999 26.8199C14.1999 26.8999 14.5999 26.9499 14.9999 26.9899V29.9999C14.9999 30.2651 15.1052 30.5195 15.2928 30.707C15.4803 30.8945 15.7347 30.9999 15.9999 30.9999C16.2651 30.9999 16.5195 30.8945 16.707 30.707C16.8945 30.5195 16.9999 30.2651 16.9999 29.9999V26.9999C19.2061 26.79 21.2974 25.9186 22.9999 24.4999L26.2699 27.7599C25.9641 28.3984 25.894 29.1245 26.072 29.8097C26.2499 30.4949 26.6645 31.0952 27.2423 31.5042C27.8201 31.9133 28.524 32.1048 29.2294 32.0449C29.9348 31.985 30.5963 31.6776 31.097 31.177C31.5976 30.6764 31.905 30.0148 31.9649 29.3094C32.0248 28.604 31.8333 27.9001 31.4242 27.3223C31.0152 26.7445 30.4149 26.3299 29.7297 26.152C29.0445 25.974 28.3184 26.0441 27.6799 26.3499L27.7099 26.2999ZM2.99989 29.9999C2.83544 30.0006 2.67335 29.9607 2.52799 29.8838C2.38263 29.8069 2.25849 29.6953 2.16655 29.5589C2.07462 29.4226 2.01773 29.2656 2.00093 29.1021C1.98413 28.9385 2.00793 28.7733 2.07024 28.6211C2.13254 28.4689 2.23141 28.3344 2.35811 28.2295C2.4848 28.1247 2.63539 28.0527 2.79655 28.0199C2.95771 27.9872 3.12446 27.9947 3.28203 28.0418C3.4396 28.0889 3.58312 28.1741 3.69989 28.2899C3.84031 28.4292 3.93628 28.6069 3.97567 28.8008C4.01505 28.9946 3.99608 29.1957 3.92116 29.3787C3.84623 29.5618 3.71871 29.7185 3.55473 29.829C3.39075 29.9396 3.19766 29.9991 2.99989 29.9999ZM28.9999 1.99989C29.1643 1.9992 29.3264 2.03908 29.4718 2.11599C29.6171 2.19291 29.7413 2.30449 29.8332 2.44085C29.9252 2.5772 29.982 2.73413 29.9988 2.89772C30.0156 3.06131 29.9918 3.22653 29.9295 3.37872C29.8672 3.53092 29.7684 3.6654 29.6417 3.77026C29.515 3.87511 29.3644 3.9471 29.2032 3.97985C29.0421 4.0126 28.8753 4.0051 28.7177 3.95801C28.5602 3.91092 28.4167 3.8257 28.2999 3.70989C28.1595 3.57062 28.0635 3.39283 28.0241 3.19902C27.9847 3.00521 28.0037 2.80407 28.0786 2.62104C28.1535 2.438 28.2811 2.2813 28.445 2.17074C28.609 2.06017 28.8021 2.00072 28.9999 1.99989ZM1.99989 2.99989C1.9992 2.83544 2.03908 2.67335 2.11599 2.52799C2.19291 2.38263 2.30449 2.25849 2.44085 2.16655C2.5772 2.07462 2.73413 2.01773 2.89772 2.00093C3.06131 1.98413 3.22653 2.00793 3.37872 2.07024C3.53092 2.13254 3.6654 2.23141 3.77026 2.35811C3.87511 2.4848 3.9471 2.63539 3.97985 2.79655C4.0126 2.95771 4.0051 3.12446 3.95801 3.28203C3.91092 3.4396 3.8257 3.58312 3.70989 3.69989C3.57062 3.84031 3.39283 3.93628 3.19902 3.97567C3.00521 4.01505 2.80407 3.99608 2.62104 3.92116C2.438 3.84623 2.2813 3.71871 2.17074 3.55473C2.06017 3.39075 2.00072 3.19766 1.99989 2.99989ZM28.9999 29.9999C28.8033 29.9991 28.6113 29.9403 28.448 29.831C28.2846 29.7217 28.157 29.5667 28.0813 29.3853C28.0055 29.2039 27.9849 29.0042 28.022 28.8111C28.0591 28.6181 28.1523 28.4403 28.2899 28.2999C28.4054 28.182 28.5483 28.0946 28.7059 28.0454C28.8634 27.9962 29.0307 27.9867 29.1928 28.0179C29.3549 28.049 29.5067 28.1198 29.6348 28.2239C29.7629 28.328 29.8632 28.4622 29.9268 28.6145C29.9904 28.7668 30.0153 28.9325 29.9993 29.0968C29.9833 29.261 29.9269 29.4188 29.8352 29.556C29.7434 29.6931 29.6191 29.8055 29.4733 29.8829C29.3276 29.9604 29.1649 30.0006 28.9999 29.9999Z" fill="#000033"/>
<path d="M5.72501 27.735L9.02501 24.475C10.7214 25.9118 12.8133 26.8009 15.025 27.025L15.025 30.025C15.025 30.2903 15.1304 30.5446 15.3179 30.7321C15.5054 30.9197 15.7598 31.025 16.025 31.025C16.2902 31.025 16.5446 30.9197 16.7321 30.7321C16.9197 30.5446 17.025 30.2903 17.025 30.025L17.025 27.025C19.2312 26.8151 21.3225 25.9437 23.025 24.525L26.325 27.735C26.0192 28.3736 25.9491 29.0996 26.1271 29.7849C26.305 30.4701 26.7196 31.0703 27.2974 31.4794C27.8752 31.8884 28.5791 32.0799 29.2845 32.02C29.99 31.9601 30.6515 31.6527 31.1521 31.1521C31.6527 30.6515 31.9601 29.99 32.02 29.2846C32.0799 28.5791 31.8884 27.8753 31.4793 27.2974C31.0703 26.7196 30.4701 26.3051 29.7848 26.1271C29.0996 25.9491 28.3735 26.0193 27.735 26.325L24.475 23.025C25.8937 21.3225 26.7651 19.2312 26.975 17.025L30.025 17.025C30.2902 17.025 30.5446 16.9197 30.7321 16.7321C30.9197 16.5446 31.025 16.2903 31.025 16.025C31.025 15.7598 30.9197 15.5055 30.7321 15.3179C30.5446 15.1304 30.2902 15.025 30.025 15.025L26.975 15.025C26.7651 12.8189 25.8937 10.7275 24.475 9.02503L27.735 5.72504C28.3735 6.03081 29.0996 6.10092 29.7848 5.92297C30.4701 5.74502 31.0703 5.33046 31.4793 4.75263C31.8884 4.1748 32.0799 3.47093 32.02 2.76551C31.9601 2.06009 31.6527 1.39857 31.1521 0.897971C30.6515 0.397369 29.99 0.0899347 29.2845 0.0300451C28.5791 -0.0298445 27.8752 0.16167 27.2974 0.570714C26.7196 0.979759 26.305 1.57998 26.1271 2.2652C25.9491 2.95043 26.0192 3.67652 26.325 4.31504L23.025 7.57504C21.3225 6.15633 19.2312 5.28494 17.025 5.07503L17.025 2.02503C17.025 1.75982 16.9197 1.50546 16.7321 1.31793C16.5446 1.13039 16.2902 1.02503 16.025 1.02503C15.7598 1.02503 15.5054 1.13039 15.3179 1.31793C15.1304 1.50546 15.025 1.75982 15.025 2.02503L15.025 5.08503C12.8192 5.28181 10.726 6.147 9.02501 7.56503L5.72501 4.31503C6.03079 3.67652 6.1009 2.95043 5.92294 2.2652C5.74499 1.57997 5.33044 0.979758 4.75261 0.570713C4.17478 0.161669 3.4709 -0.0298456 2.76548 0.030044C2.06006 0.0899335 1.39855 0.397368 0.897945 0.89797C0.397343 1.39857 0.0899104 2.06009 0.0300215 2.76551C-0.0298692 3.47093 0.161644 4.1748 0.570688 4.75263C0.979732 5.33046 1.57995 5.74502 2.26518 5.92297C2.95041 6.10092 3.67649 6.03081 4.31501 5.72503L7.58501 9.02503C7.46501 9.17503 7.33501 9.30503 7.22501 9.45503C7.14622 9.56009 7.08889 9.67964 7.05629 9.80685C7.0237 9.93407 7.01649 10.0665 7.03506 10.1965C7.05363 10.3265 7.09763 10.4515 7.16454 10.5645C7.23144 10.6775 7.31995 10.7762 7.42501 10.855C7.53007 10.9338 7.64962 10.9912 7.77683 11.0237C7.90404 11.0563 8.03643 11.0636 8.16643 11.045C8.29643 11.0264 8.4215 10.9824 8.5345 10.9155C8.6475 10.8486 8.74622 10.7601 8.82501 10.655C9.65579 9.5271 10.7405 8.6107 11.9914 7.98004C13.2423 7.34939 14.6241 7.02222 16.025 7.02503C17.8822 7.02541 19.6938 7.60033 21.2114 8.67094C22.7289 9.74155 23.8781 11.2554 24.5013 13.0049C25.1245 14.7544 25.1913 16.6539 24.6923 18.4428C24.1934 20.2318 23.1533 21.8225 21.7146 22.997C20.2759 24.1714 18.5091 24.872 16.6565 25.0027C14.8039 25.1334 12.9562 24.6878 11.3669 23.7269C9.77757 22.7661 8.52441 21.3371 7.77929 19.6359C7.03417 17.9347 6.83357 16.0447 7.20501 14.225C7.23127 14.0937 7.23141 13.9585 7.20542 13.8271C7.17944 13.6958 7.12782 13.5708 7.05354 13.4593C6.97925 13.3479 6.88374 13.2522 6.77247 13.1777C6.66119 13.1032 6.53633 13.0513 6.40501 13.025C6.27369 12.9988 6.13848 12.9986 6.0071 13.0246C5.87572 13.0506 5.75075 13.1022 5.63932 13.1765C5.52789 13.2508 5.43219 13.3463 5.35767 13.4576C5.28315 13.5688 5.23127 13.6937 5.20501 13.825C5.12501 14.225 5.07501 14.625 5.03501 15.025L2.02501 15.025C1.75979 15.025 1.50544 15.1304 1.3179 15.3179C1.13036 15.5055 1.02501 15.7598 1.02501 16.025C1.02501 16.2903 1.13036 16.5446 1.3179 16.7321C1.50544 16.9197 1.75979 17.025 2.02501 17.025L5.02501 17.025C5.23492 19.2312 6.1063 21.3225 7.52501 23.025L4.26501 26.295C3.62649 25.9893 2.9004 25.9191 2.21518 26.0971C1.52995 26.2751 0.929732 26.6896 0.520688 27.2674C0.111644 27.8453 -0.0798734 28.5491 -0.0199827 29.2546C0.0399061 29.96 0.34734 30.6215 0.847943 31.1221C1.34855 31.6227 2.01006 31.9301 2.71548 31.99C3.4209 32.0499 4.12478 31.8584 4.7026 31.4494C5.28044 31.0403 5.69499 30.4401 5.87294 29.7549C6.0509 29.0696 5.98079 28.3436 5.67501 27.705L5.72501 27.735ZM2.02501 3.02503C2.02432 2.86058 2.0642 2.6985 2.14112 2.55314C2.21803 2.40778 2.32961 2.28363 2.46597 2.1917C2.60232 2.09976 2.75925 2.04287 2.92284 2.02607C3.08644 2.00927 3.25165 2.03308 3.40384 2.09538C3.55604 2.15768 3.69052 2.25656 3.79538 2.38325C3.90023 2.50994 3.97222 2.66054 4.00497 2.8217C4.03772 2.98286 4.03022 3.14961 3.98313 3.30718C3.93604 3.46475 3.85082 3.60827 3.73501 3.72503C3.59574 3.86546 3.41796 3.96143 3.22414 4.00081C3.03033 4.0402 2.82919 4.02123 2.64616 3.9463C2.46312 3.87138 2.30642 3.74386 2.19586 3.57988C2.08529 3.41589 2.02584 3.22281 2.02501 3.02503ZM30.025 29.025C30.0257 29.1895 29.9858 29.3516 29.9089 29.4969C29.832 29.6423 29.7204 29.7664 29.5841 29.8584C29.4477 29.9503 29.2908 30.0072 29.1272 30.024C28.9636 30.0408 28.7984 30.017 28.6462 29.9547C28.494 29.8924 28.3595 29.7935 28.2546 29.6668C28.1498 29.5401 28.0778 29.3895 28.0451 29.2284C28.0123 29.0672 28.0198 28.9005 28.0669 28.7429C28.114 28.5853 28.1992 28.4418 28.315 28.325C28.4543 28.1846 28.6321 28.0886 28.8259 28.0493C29.0197 28.0099 29.2208 28.0288 29.4039 28.1038C29.5869 28.1787 29.7436 28.3062 29.8542 28.4702C29.9647 28.6342 30.0242 28.8273 30.025 29.025ZM29.025 2.02504C29.1895 2.02435 29.3516 2.06422 29.4969 2.14114C29.6423 2.21806 29.7664 2.32964 29.8584 2.46599C29.9503 2.60235 30.0072 2.75927 30.024 2.92287C30.0408 3.08646 30.017 3.25167 29.9547 3.40387C29.8924 3.55607 29.7935 3.69055 29.6668 3.7954C29.5401 3.90026 29.3895 3.97225 29.2283 4.005C29.0672 4.03775 28.9004 4.03024 28.7429 3.98316C28.5853 3.93607 28.4418 3.85084 28.325 3.73504C28.1846 3.59576 28.0886 3.41798 28.0492 3.22417C28.0098 3.03036 28.0288 2.82922 28.1037 2.64618C28.1787 2.46315 28.3062 2.30644 28.4702 2.19588C28.6342 2.08532 28.8272 2.02586 29.025 2.02504ZM2.02501 29.025C2.02582 28.8285 2.08455 28.6365 2.19387 28.4731C2.30318 28.3097 2.45822 28.1822 2.63961 28.1064C2.82101 28.0307 3.02071 28.01 3.21375 28.0471C3.4068 28.0843 3.58463 28.1774 3.72501 28.315C3.84288 28.4306 3.93031 28.5735 3.97952 28.731C4.02873 28.8886 4.03818 29.0558 4.00702 29.2179C3.97587 29.38 3.90509 29.5319 3.80098 29.6599C3.69687 29.788 3.56269 29.8883 3.41039 29.9519C3.25809 30.0155 3.09241 30.0405 2.92814 30.0245C2.76387 30.0085 2.60611 29.9521 2.46893 29.8603C2.33175 29.7685 2.21942 29.6442 2.14196 29.4985C2.06451 29.3527 2.02433 29.1901 2.02501 29.025Z" fill="#000033"/>
<path d="M18.4083 15.7926C18.8598 15.3078 19.1628 14.6975 19.2796 14.0374C19.3964 13.3773 19.3219 12.6964 19.0654 12.0794C18.8088 11.4624 18.3816 10.9364 17.8366 10.5668C17.2917 10.1971 16.653 10 16 10C15.347 10 14.7083 10.1971 14.1634 10.5668C13.6184 10.9364 13.1912 11.4624 12.9346 12.0794C12.6781 12.6964 12.6036 13.3773 12.7204 14.0374C12.8372 14.6975 13.1402 15.3078 13.5917 15.7926C12.8079 16.2352 12.154 16.8857 11.6981 17.6763C11.2423 18.4669 11.0012 19.3687 11 20.2876V21.1438C11 21.3709 11.0878 21.5887 11.2441 21.7492C11.4004 21.9098 11.6123 22 11.8333 22H20.1667C20.3877 22 20.5996 21.9098 20.7559 21.7492C20.9122 21.5887 21 21.3709 21 21.1438V20.2876C20.9988 19.3687 20.7577 18.4669 20.3019 17.6763C19.846 16.8857 19.1921 16.2352 18.4083 15.7926ZM14.3333 13.438C14.3333 13.0994 14.4311 12.7683 14.6142 12.4867C14.7974 12.2051 15.0577 11.9856 15.3622 11.856C15.6667 11.7264 16.0018 11.6925 16.3252 11.7586C16.6485 11.8246 16.9454 11.9877 17.1785 12.2272C17.4116 12.4667 17.5703 12.7718 17.6346 13.104C17.699 13.4361 17.6659 13.7804 17.5398 14.0933C17.4137 14.4062 17.2 14.6737 16.926 14.8618C16.6519 15.05 16.3296 15.1504 16 15.1504C15.558 15.1504 15.134 14.97 14.8215 14.6489C14.5089 14.3277 14.3333 13.8922 14.3333 13.438ZM12.6667 20.2876C12.6667 19.3793 13.0179 18.5082 13.643 17.8659C14.2681 17.2236 15.1159 16.8628 16 16.8628C16.8841 16.8628 17.7319 17.2236 18.357 17.8659C18.9821 18.5082 19.3333 19.3793 19.3333 20.2876H12.6667Z" fill="#100FA8"/>
</g>
<defs>
<clipPath id="clip0_1863_100">
<rect width="32" height="32" fill="white"/>
</clipPath>
</defs>
</svg>
