<svg width="32" height="32" viewBox="0 0 32 32" fill="none" xmlns="http://www.w3.org/2000/svg">
<g clip-path="url(#clip0_1863_136)">
<path d="M11.3 21.72C12.0636 21.0491 12.6046 20.1615 12.8509 19.1754C13.0973 18.1892 13.0372 17.1515 12.6788 16.2003C12.3203 15.2492 11.6805 14.4299 10.8446 13.8517C10.0087 13.2734 9.01642 12.9636 8 12.9636C6.98358 12.9636 5.99129 13.2734 5.15539 13.8517C4.3195 14.4299 3.67969 15.2492 3.32124 16.2003C2.96279 17.1515 2.90272 18.1892 3.14905 19.1754C3.39538 20.1615 3.9364 21.0491 4.7 21.72C3.30014 22.3538 2.11247 23.3775 1.27898 24.6685C0.445495 25.9595 0.00147185 27.4633 0 29L0 30C0 30.2652 0.105357 30.5195 0.292893 30.7071C0.48043 30.8946 0.734784 31 1 31H4C4.26522 31 4.51957 30.8946 4.70711 30.7071C4.89464 30.5195 5 30.2652 5 30C5 29.7347 4.89464 29.4804 4.70711 29.2928C4.51957 29.1053 4.26522 29 4 29H2C2 27.4087 2.63214 25.8825 3.75736 24.7573C4.88258 23.6321 6.4087 23 8 23C9.5913 23 11.1174 23.6321 12.2426 24.7573C13.3679 25.8825 14 27.4087 14 29H3.83333C3.56812 29 3.31376 29.1053 3.12623 29.2928C2.93869 29.4804 2.83333 29.7347 2.83333 30C2.83333 30.2652 2.93869 30.5195 3.12623 30.7071C3.31376 30.8946 3.56812 31 3.83333 31H15C15.2652 31 15.5196 30.8946 15.7071 30.7071C15.8946 30.5195 16 30.2652 16 30V29C15.9985 27.4633 15.5545 25.9595 14.721 24.6685C13.8875 23.3775 12.6999 22.3538 11.3 21.72ZM5 18C5 17.4066 5.17595 16.8266 5.50559 16.3332C5.83524 15.8399 6.30377 15.4554 6.85195 15.2283C7.40013 15.0012 8.00333 14.9418 8.58527 15.0576C9.16721 15.1734 9.70176 15.4591 10.1213 15.8786C10.5409 16.2982 10.8266 16.8327 10.9424 17.4147C11.0581 17.9966 10.9987 18.5998 10.7716 19.148C10.5446 19.6962 10.1601 20.1647 9.66671 20.4944C9.17336 20.824 8.59334 21 8 21C7.20435 21 6.44129 20.6839 5.87868 20.1213C5.31607 19.5587 5 18.7956 5 18Z" fill="#000033"/>
<path d="M29 1H17C16.2044 1 15.4413 1.31607 14.8787 1.87868C14.3161 2.44129 14 3.20435 14 4V10C14 10.7956 14.3161 11.5587 14.8787 12.1213C15.4413 12.6839 16.2044 13 17 13V15C17 15.1857 17.0517 15.3678 17.1493 15.5257C17.247 15.6837 17.3867 15.8114 17.5528 15.8944C17.7189 15.9775 17.9048 16.0126 18.0898 15.996C18.2748 15.9793 18.4514 15.9114 18.6 15.8L22.33 13H29C29.7956 13 30.5587 12.6839 31.1213 12.1213C31.6839 11.5587 32 10.7956 32 10V4C32 3.20435 31.6839 2.44129 31.1213 1.87868C30.5587 1.31607 29.7956 1 29 1ZM30 10C30 10.2652 29.8946 10.5196 29.7071 10.7071C29.5196 10.8946 29.2652 11 29 11H22C21.56 11 21.62 11 19 13V12C19 11.7348 18.8946 11.4804 18.7071 11.2929C18.5196 11.1054 18.2652 11 18 11H17C16.7348 11 16.4804 10.8946 16.2929 10.7071C16.1054 10.5196 16 10.2652 16 10V4C16 3.73478 16.1054 3.48043 16.2929 3.29289C16.4804 3.10536 16.7348 3 17 3H29C29.2652 3 29.5196 3.10536 29.7071 3.29289C29.8946 3.48043 30 3.73478 30 4V10Z" fill="#000033"/>
<path d="M19 8C18.8022 8 18.6089 7.94135 18.4444 7.83147C18.28 7.72159 18.1518 7.56541 18.0761 7.38268C18.0004 7.19996 17.9806 6.99889 18.0192 6.80491C18.0578 6.61093 18.153 6.43275 18.2929 6.29289C18.4327 6.15304 18.6109 6.0578 18.8049 6.01922C18.9989 5.98063 19.2 6.00043 19.3827 6.07612C19.5654 6.15181 19.7216 6.27998 19.8315 6.44443C19.9414 6.60888 20 6.80222 20 7C20 7.26522 19.8946 7.51957 19.7071 7.70711C19.5196 7.89464 19.2652 8 19 8Z" fill="#100FA8"/>
<path d="M23 8C22.8022 8 22.6089 7.94135 22.4444 7.83147C22.28 7.72159 22.1518 7.56541 22.0761 7.38268C22.0004 7.19996 21.9806 6.99889 22.0192 6.80491C22.0578 6.61093 22.153 6.43275 22.2929 6.29289C22.4327 6.15304 22.6109 6.0578 22.8049 6.01922C22.9989 5.98063 23.2 6.00043 23.3827 6.07612C23.5654 6.15181 23.7216 6.27998 23.8315 6.44443C23.9414 6.60888 24 6.80222 24 7C24 7.26522 23.8946 7.51957 23.7071 7.70711C23.5196 7.89464 23.2652 8 23 8Z" fill="#100FA8"/>
<path d="M27 8C26.8022 8 26.6089 7.94135 26.4444 7.83147C26.28 7.72159 26.1518 7.56541 26.0761 7.38268C26.0004 7.19996 25.9806 6.99889 26.0192 6.80491C26.0578 6.61093 26.153 6.43275 26.2929 6.29289C26.4327 6.15304 26.6109 6.0578 26.8049 6.01922C26.9989 5.98063 27.2 6.00043 27.3827 6.07612C27.5654 6.15181 27.7216 6.27998 27.8315 6.44443C27.9414 6.60888 28 6.80222 28 7C28 7.26522 27.8946 7.51957 27.7071 7.70711C27.5196 7.89464 27.2652 8 27 8Z" fill="#100FA8"/>
</g>
<defs>
<clipPath id="clip0_1863_136">
<rect width="32" height="32" fill="white"/>
</clipPath>
</defs>
</svg>
