<svg width="25" height="29" viewBox="0 0 25 29" fill="none" xmlns="http://www.w3.org/2000/svg">
<path d="M24.163 15.6942L22.4999 11.172C22.171 5.49787 17.4882 1.00065 11.7595 1C5.81763 1.00076 1.00098 5.8402 1.00098 11.8104C1.00249 13.507 1.38584 15.5164 2.30661 17.3752C3.17955 19.1388 4.55136 20.7692 6.53958 21.7864V27.4527C6.53958 27.5963 6.59773 27.738 6.69867 27.8394C6.80036 27.9416 6.94056 28 7.08429 28H15.9412C16.0842 28 16.2252 27.9416 16.3261 27.8394C16.4278 27.738 16.4859 27.5963 16.4859 27.4527V24.2676H19.0785C20.6333 24.2676 21.8926 23.0015 21.8934 21.4392V18.5015L23.078 18.0621C23.818 17.7862 24.2768 17.0828 24.2768 16.3327C24.2768 16.1199 24.2398 15.9034 24.1631 15.694L24.163 15.6942ZM22.7003 17.0352L21.1602 17.6066C20.946 17.6863 20.8042 17.8904 20.8042 18.1203V21.4389C20.8027 22.3962 20.0315 23.1712 19.0788 23.1734H15.9415C15.7977 23.1734 15.6575 23.2311 15.5566 23.3333C15.4549 23.4355 15.3968 23.5763 15.3968 23.7208V26.9054H7.62944V21.4435C7.62944 21.2305 7.50535 21.0355 7.31279 20.9465C5.41587 20.0658 4.1181 18.5713 3.28164 16.8871C2.44646 15.2064 2.09006 13.3407 2.09057 11.8105C2.09057 9.12593 3.1719 6.70039 4.9228 4.94001C6.67447 3.18145 9.08837 2.09491 11.7603 2.09413C16.9339 2.09337 21.1598 6.1791 21.4169 11.3117L21.4504 11.4743L23.1416 16.0729C23.1728 16.1592 23.1874 16.246 23.1882 16.3319C23.1877 16.6365 23.0017 16.9233 22.7011 17.0348L22.7003 17.0352Z" fill="#000033" stroke="#000033" stroke-width="0.8"/>
</svg>
