<svg width="28" height="27" viewBox="0 0 28 27" fill="none" xmlns="http://www.w3.org/2000/svg">
<path fill-rule="evenodd" clip-rule="evenodd" d="M1.64705 12.1111H12.4642L13.0741 11.5481V1.56305L12.4642 1H1.64705L1.03711 1.56305V11.5481L1.64705 12.1111ZM11.8542 10.9848H2.2576V2.126H11.8542V10.9848ZM15.5359 12.1111H26.3531L26.963 11.5481V1.56305L26.3531 1H15.5359L14.926 1.56305V11.5481L15.5359 12.1111ZM25.7425 10.9848H16.1459V2.126H25.7425V10.9848ZM12.4642 26H1.64705L1.03711 25.3901V14.5729L1.64705 13.963H12.4642L13.0741 14.5729V25.3901L12.4642 26ZM2.2576 24.7799H11.8542V15.1833H2.2576V24.7799ZM15.5359 26H26.3531L26.963 25.3901V14.5729L26.3531 13.963H15.5359L14.926 14.5729V25.3901L15.5359 26ZM25.7425 24.7799H16.1459V15.1833H25.7425V24.7799Z" fill="#000033"/>
<path d="M12.4642 12.1111V12.3611H12.5619L12.6338 12.2948L12.4642 12.1111ZM1.64705 12.1111L1.47748 12.2948L1.54931 12.3611H1.64705V12.1111ZM13.0741 11.5481L13.2437 11.7318L13.3241 11.6575V11.5481H13.0741ZM13.0741 1.56305H13.3241V1.4536L13.2437 1.37935L13.0741 1.56305ZM12.4642 1L12.6338 0.816303L12.5619 0.75H12.4642V1ZM1.64705 1V0.75H1.54931L1.47748 0.816303L1.64705 1ZM1.03711 1.56305L0.867535 1.37935L0.787109 1.4536V1.56305H1.03711ZM1.03711 11.5481H0.787109V11.6575L0.867535 11.7318L1.03711 11.5481ZM2.2576 10.9848H2.0076V11.2348H2.2576V10.9848ZM11.8542 10.9848V11.2348H12.1042V10.9848H11.8542ZM2.2576 2.126V1.876H2.0076V2.126H2.2576ZM11.8542 2.126H12.1042V1.876H11.8542V2.126ZM26.3531 12.1111V12.3611H26.4508L26.5227 12.2948L26.3531 12.1111ZM15.5359 12.1111L15.3664 12.2948L15.4382 12.3611H15.5359V12.1111ZM26.963 11.5481L27.1326 11.7318L27.213 11.6575V11.5481H26.963ZM26.963 1.56305H27.213V1.4536L27.1326 1.37935L26.963 1.56305ZM26.3531 1L26.5227 0.816303L26.4508 0.75H26.3531V1ZM15.5359 1V0.75H15.4382L15.3664 0.816303L15.5359 1ZM14.926 1.56305L14.7564 1.37935L14.676 1.4536V1.56305H14.926ZM14.926 11.5481H14.676V11.6575L14.7564 11.7318L14.926 11.5481ZM16.1459 10.9848H15.8959V11.2348H16.1459V10.9848ZM25.7425 10.9848V11.2348H25.9925V10.9848H25.7425ZM16.1459 2.126V1.876H15.8959V2.126H16.1459ZM25.7425 2.126H25.9925V1.876H25.7425V2.126ZM1.64705 26L1.47028 26.1768L1.5435 26.25H1.64705V26ZM12.4642 26V26.25H12.5678L12.641 26.1768L12.4642 26ZM1.03711 25.3901H0.787109V25.4936L0.860333 25.5668L1.03711 25.3901ZM1.03711 14.5729L0.860333 14.3961L0.787109 14.4694V14.5729H1.03711ZM1.64705 13.963V13.713H1.5435L1.47028 13.7862L1.64705 13.963ZM12.4642 13.963L12.641 13.7862L12.5678 13.713H12.4642V13.963ZM13.0741 14.5729H13.3241V14.4694L13.2509 14.3961L13.0741 14.5729ZM13.0741 25.3901L13.2509 25.5668L13.3241 25.4936V25.3901H13.0741ZM11.8542 24.7799V25.0299H12.1042V24.7799H11.8542ZM2.2576 24.7799H2.0076V25.0299H2.2576V24.7799ZM11.8542 15.1833H12.1042V14.9333H11.8542V15.1833ZM2.2576 15.1833V14.9333H2.0076V15.1833H2.2576ZM26.3531 26V26.25H26.4566L26.5299 26.1768L26.3531 26ZM15.5359 26L15.3592 26.1768L15.4324 26.25H15.5359V26ZM26.963 25.3901L27.1398 25.5668L27.213 25.4936V25.3901H26.963ZM26.963 14.5729H27.213V14.4694L27.1398 14.3961L26.963 14.5729ZM26.3531 13.963L26.5299 13.7862L26.4566 13.713H26.3531V13.963ZM15.5359 13.963V13.713H15.4324L15.3592 13.7862L15.5359 13.963ZM14.926 14.5729L14.7492 14.3961L14.676 14.4694V14.5729H14.926ZM14.926 25.3901H14.676V25.4936L14.7492 25.5668L14.926 25.3901ZM16.1459 24.7799H15.8959V25.0299H16.1459V24.7799ZM25.7425 24.7799V25.0299H25.9925V24.7799H25.7425ZM16.1459 15.1833V14.9333H15.8959V15.1833H16.1459ZM25.7425 15.1833H25.9925V14.9333H25.7425V15.1833ZM12.4642 11.8611H1.64705V12.3611H12.4642V11.8611ZM12.9046 11.3644L12.2946 11.9274L12.6338 12.2948L13.2437 11.7318L12.9046 11.3644ZM12.8241 1.56305V11.5481H13.3241V1.56305H12.8241ZM12.2946 1.1837L12.9046 1.74675L13.2437 1.37935L12.6338 0.816303L12.2946 1.1837ZM1.64705 1.25H12.4642V0.75H1.64705V1.25ZM1.20668 1.74675L1.81663 1.1837L1.47748 0.816303L0.867535 1.37935L1.20668 1.74675ZM1.28711 11.5481V1.56305H0.787109V11.5481H1.28711ZM1.81663 11.9274L1.20668 11.3644L0.867535 11.7318L1.47748 12.2948L1.81663 11.9274ZM2.2576 11.2348H11.8542V10.7348H2.2576V11.2348ZM2.0076 2.126V10.9848H2.5076V2.126H2.0076ZM11.8542 1.876H2.2576V2.376H11.8542V1.876ZM12.1042 10.9848V2.126H11.6042V10.9848H12.1042ZM26.3531 11.8611H15.5359V12.3611H26.3531V11.8611ZM26.7935 11.3644L26.1835 11.9274L26.5227 12.2948L27.1326 11.7318L26.7935 11.3644ZM26.713 1.56305V11.5481H27.213V1.56305H26.713ZM26.1835 1.1837L26.7935 1.74675L27.1326 1.37935L26.5227 0.816303L26.1835 1.1837ZM15.5359 1.25H26.3531V0.75H15.5359V1.25ZM15.0956 1.74675L15.7055 1.1837L15.3664 0.816303L14.7564 1.37935L15.0956 1.74675ZM15.176 11.5481V1.56305H14.676V11.5481H15.176ZM15.7055 11.9274L15.0956 11.3644L14.7564 11.7318L15.3664 12.2948L15.7055 11.9274ZM16.1459 11.2348H25.7425V10.7348H16.1459V11.2348ZM15.8959 2.126V10.9848H16.3959V2.126H15.8959ZM25.7425 1.876H16.1459V2.376H25.7425V1.876ZM25.9925 10.9848V2.126H25.4925V10.9848H25.9925ZM1.64705 26.25H12.4642V25.75H1.64705V26.25ZM0.860333 25.5668L1.47028 26.1768L1.82383 25.8232L1.21389 25.2133L0.860333 25.5668ZM0.787109 14.5729V25.3901H1.28711V14.5729H0.787109ZM1.47028 13.7862L0.860333 14.3961L1.21389 14.7497L1.82383 14.1397L1.47028 13.7862ZM12.4642 13.713H1.64705V14.213H12.4642V13.713ZM13.2509 14.3961L12.641 13.7862L12.2874 14.1397L12.8974 14.7497L13.2509 14.3961ZM13.3241 25.3901V14.5729H12.8241V25.3901H13.3241ZM12.641 26.1768L13.2509 25.5668L12.8974 25.2133L12.2874 25.8232L12.641 26.1768ZM11.8542 24.5299H2.2576V25.0299H11.8542V24.5299ZM11.6042 15.1833V24.7799H12.1042V15.1833H11.6042ZM2.2576 15.4333H11.8542V14.9333H2.2576V15.4333ZM2.5076 24.7799V15.1833H2.0076V24.7799H2.5076ZM26.3531 25.75H15.5359V26.25H26.3531V25.75ZM26.7863 25.2133L26.1763 25.8232L26.5299 26.1768L27.1398 25.5668L26.7863 25.2133ZM26.713 14.5729V25.3901H27.213V14.5729H26.713ZM26.1763 14.1397L26.7863 14.7497L27.1398 14.3961L26.5299 13.7862L26.1763 14.1397ZM15.5359 14.213H26.3531V13.713H15.5359V14.213ZM15.1028 14.7497L15.7127 14.1397L15.3592 13.7862L14.7492 14.3961L15.1028 14.7497ZM15.176 25.3901V14.5729H14.676V25.3901H15.176ZM15.7127 25.8232L15.1028 25.2133L14.7492 25.5668L15.3592 26.1768L15.7127 25.8232ZM16.1459 25.0299H25.7425V24.5299H16.1459V25.0299ZM15.8959 15.1833V24.7799H16.3959V15.1833H15.8959ZM25.7425 14.9333H16.1459V15.4333H25.7425V14.9333ZM25.9925 24.7799V15.1833H25.4925V24.7799H25.9925Z" fill="#000033"/>
</svg>
