<svg width="206" height="48" viewBox="0 0 206 48" fill="none" xmlns="http://www.w3.org/2000/svg">
<rect width="206" height="48" rx="8" fill="#F4F2FA"/>
<path d="M14.7139 32H16.8568C17.2514 32 17.5711 31.6963 17.5711 31.3217C17.5711 30.9469 17.2514 30.6432 16.8568 30.6432H14.7139C13.1828 30.6432 11.7679 29.8673 11.0024 28.608C10.2368 27.3487 10.2368 25.7968 11.0024 24.5375C11.7679 23.2782 13.1828 22.5023 14.7139 22.5023H15.4283C15.6177 22.5023 15.7994 22.4307 15.9334 22.3035C16.0673 22.1763 16.1426 22.0037 16.1426 21.8238C16.1426 19.1577 17.64 16.6941 20.071 15.361C22.5021 14.0278 25.4973 14.0278 27.9286 15.361C30.3597 16.6939 31.857 19.1575 31.857 21.8238C31.857 22.0037 31.9324 22.1763 32.0663 22.3035C32.2002 22.4307 32.382 22.5023 32.5714 22.5023H33.2858C34.8169 22.5023 36.2317 23.2782 36.9973 24.5375C37.7628 25.7968 37.7628 27.3487 36.9973 28.608C36.2317 29.8673 34.8169 30.6432 33.2858 30.6432H31.1429C30.7483 30.6432 30.4285 30.9469 30.4285 31.3217C30.4285 31.6963 30.7483 32 31.1429 32H33.2858C35.3273 32 37.2137 30.9656 38.2344 29.2865C39.2552 27.6072 39.2552 25.5383 38.2344 23.859C37.2137 22.1799 35.3273 21.1455 33.2858 21.1455H33.2585C33.0179 18.1635 31.2027 15.5004 28.4363 14.0716C25.67 12.6428 22.3299 12.6428 19.5637 14.0716C16.7973 15.5005 14.9821 18.1636 14.7415 21.1455H14.7142C12.6727 21.1455 10.7863 22.1799 9.76555 23.859C8.74482 25.5383 8.74482 27.6072 9.76555 29.2865C10.7863 30.9656 12.6727 32 14.7142 32H14.7139Z" fill="#000033" stroke="#000033" stroke-width="0.75"/>
<path d="M23.2837 36.2753L20.2123 33.0557C19.9315 32.7715 19.4855 32.7755 19.2095 33.0648C18.9336 33.3543 18.9298 33.8218 19.2007 34.1161L23.4934 38.6157C23.6277 38.7568 23.81 38.8362 24 38.8362C24.19 38.8362 24.3723 38.7568 24.5066 38.6157L28.7993 34.1161C29.0702 33.8218 29.0664 33.3542 28.7905 33.0648C28.5145 32.7755 28.0682 32.7715 27.7875 33.0557L24.7149 36.2753V27.75C24.7149 27.3359 24.3943 27 23.9993 27C23.6043 27 23.2838 27.3359 23.2838 27.75L23.2837 36.2753Z" fill="#100FA8" stroke="#100FA8" stroke-width="0.7"/>
<path d="M57.66 31V17H64.02C65.54 17 66.88 17.2933 68.04 17.88C69.2 18.4533 70.1067 19.26 70.76 20.3C71.4133 21.34 71.74 22.5733 71.74 24C71.74 25.4133 71.4133 26.6467 70.76 27.7C70.1067 28.74 69.2 29.5533 68.04 30.14C66.88 30.7133 65.54 31 64.02 31H57.66ZM60.9 28.34H63.86C64.7933 28.34 65.6 28.1667 66.28 27.82C66.9733 27.46 67.5067 26.9533 67.88 26.3C68.2667 25.6467 68.46 24.88 68.46 24C68.46 23.1067 68.2667 22.34 67.88 21.7C67.5067 21.0467 66.9733 20.5467 66.28 20.2C65.6 19.84 64.7933 19.66 63.86 19.66H60.9V28.34ZM79.3034 31.16C78.0768 31.16 76.9968 30.92 76.0634 30.44C75.1434 29.96 74.4301 29.3067 73.9234 28.48C73.4168 27.64 73.1634 26.6867 73.1634 25.62C73.1634 24.54 73.4101 23.5867 73.9034 22.76C74.4101 21.92 75.0968 21.2667 75.9634 20.8C76.8301 20.32 77.8101 20.08 78.9034 20.08C79.9568 20.08 80.9034 20.3067 81.7434 20.76C82.5968 21.2 83.2701 21.84 83.7634 22.68C84.2568 23.5067 84.5034 24.5 84.5034 25.66C84.5034 25.78 84.4968 25.92 84.4834 26.08C84.4701 26.2267 84.4568 26.3667 84.4434 26.5H75.7034V24.68H82.8034L81.6034 25.22C81.6034 24.66 81.4901 24.1733 81.2634 23.76C81.0368 23.3467 80.7234 23.0267 80.3234 22.8C79.9234 22.56 79.4568 22.44 78.9234 22.44C78.3901 22.44 77.9168 22.56 77.5034 22.8C77.1034 23.0267 76.7901 23.3533 76.5634 23.78C76.3368 24.1933 76.2234 24.6867 76.2234 25.26V25.74C76.2234 26.3267 76.3501 26.8467 76.6034 27.3C76.8701 27.74 77.2368 28.08 77.7034 28.32C78.1834 28.5467 78.7434 28.66 79.3834 28.66C79.9568 28.66 80.4568 28.5733 80.8834 28.4C81.3234 28.2267 81.7234 27.9667 82.0834 27.62L83.7434 29.42C83.2501 29.98 82.6301 30.4133 81.8834 30.72C81.1368 31.0133 80.2768 31.16 79.3034 31.16ZM90.2006 31.16C89.2806 31.16 88.394 31.0533 87.5406 30.84C86.7006 30.6133 86.034 30.3333 85.5406 30L86.5806 27.76C87.074 28.0667 87.654 28.32 88.3206 28.52C89.0006 28.7067 89.6673 28.8 90.3206 28.8C91.0406 28.8 91.5473 28.7133 91.8406 28.54C92.1473 28.3667 92.3006 28.1267 92.3006 27.82C92.3006 27.5667 92.1806 27.38 91.9406 27.26C91.714 27.1267 91.4073 27.0267 91.0206 26.96C90.634 26.8933 90.2073 26.8267 89.7406 26.76C89.2873 26.6933 88.8273 26.6067 88.3606 26.5C87.894 26.38 87.4673 26.2067 87.0806 25.98C86.694 25.7533 86.3806 25.4467 86.1406 25.06C85.914 24.6733 85.8006 24.1733 85.8006 23.56C85.8006 22.88 85.994 22.28 86.3806 21.76C86.7806 21.24 87.354 20.8333 88.1006 20.54C88.8473 20.2333 89.7406 20.08 90.7806 20.08C91.514 20.08 92.2606 20.16 93.0206 20.32C93.7806 20.48 94.414 20.7133 94.9206 21.02L93.8806 23.24C93.3606 22.9333 92.834 22.7267 92.3006 22.62C91.7806 22.5 91.274 22.44 90.7806 22.44C90.0873 22.44 89.5806 22.5333 89.2606 22.72C88.9406 22.9067 88.7806 23.1467 88.7806 23.44C88.7806 23.7067 88.894 23.9067 89.1206 24.04C89.3606 24.1733 89.674 24.28 90.0606 24.36C90.4473 24.44 90.8673 24.5133 91.3206 24.58C91.7873 24.6333 92.254 24.72 92.7206 24.84C93.1873 24.96 93.6073 25.1333 93.9806 25.36C94.3673 25.5733 94.6806 25.8733 94.9206 26.26C95.1606 26.6333 95.2806 27.1267 95.2806 27.74C95.2806 28.4067 95.0806 29 94.6806 29.52C94.2806 30.0267 93.7006 30.4267 92.9406 30.72C92.194 31.0133 91.2806 31.16 90.2006 31.16ZM102.406 31.16C101.246 31.16 100.212 30.9267 99.3056 30.46C98.399 29.98 97.6856 29.32 97.1656 28.48C96.659 27.64 96.4056 26.6867 96.4056 25.62C96.4056 24.54 96.659 23.5867 97.1656 22.76C97.6856 21.92 98.399 21.2667 99.3056 20.8C100.212 20.32 101.246 20.08 102.406 20.08C103.539 20.08 104.526 20.32 105.366 20.8C106.206 21.2667 106.826 21.94 107.226 22.82L104.806 24.12C104.526 23.6133 104.172 23.24 103.746 23C103.332 22.76 102.879 22.64 102.386 22.64C101.852 22.64 101.372 22.76 100.946 23C100.519 23.24 100.179 23.58 99.9256 24.02C99.6856 24.46 99.5656 24.9933 99.5656 25.62C99.5656 26.2467 99.6856 26.78 99.9256 27.22C100.179 27.66 100.519 28 100.946 28.24C101.372 28.48 101.852 28.6 102.386 28.6C102.879 28.6 103.332 28.4867 103.746 28.26C104.172 28.02 104.526 27.64 104.806 27.12L107.226 28.44C106.826 29.3067 106.206 29.98 105.366 30.46C104.526 30.9267 103.539 31.16 102.406 31.16ZM115.622 31V28.9L115.422 28.44V24.68C115.422 24.0133 115.215 23.4933 114.802 23.12C114.402 22.7467 113.782 22.56 112.942 22.56C112.369 22.56 111.802 22.6533 111.242 22.84C110.695 23.0133 110.229 23.2533 109.842 23.56L108.722 21.38C109.309 20.9667 110.015 20.6467 110.842 20.42C111.669 20.1933 112.509 20.08 113.362 20.08C115.002 20.08 116.275 20.4667 117.182 21.24C118.089 22.0133 118.542 23.22 118.542 24.86V31H115.622ZM112.342 31.16C111.502 31.16 110.782 31.02 110.182 30.74C109.582 30.4467 109.122 30.0533 108.802 29.56C108.482 29.0667 108.322 28.5133 108.322 27.9C108.322 27.26 108.475 26.7 108.782 26.22C109.102 25.74 109.602 25.3667 110.282 25.1C110.962 24.82 111.849 24.68 112.942 24.68H115.802V26.5H113.282C112.549 26.5 112.042 26.62 111.762 26.86C111.495 27.1 111.362 27.4 111.362 27.76C111.362 28.16 111.515 28.48 111.822 28.72C112.142 28.9467 112.575 29.06 113.122 29.06C113.642 29.06 114.109 28.94 114.522 28.7C114.935 28.4467 115.235 28.08 115.422 27.6L115.902 29.04C115.675 29.7333 115.262 30.26 114.662 30.62C114.062 30.98 113.289 31.16 112.342 31.16ZM121.366 31V20.24H124.346V23.28L123.926 22.4C124.246 21.64 124.759 21.0667 125.466 20.68C126.172 20.28 127.032 20.08 128.046 20.08V22.96C127.912 22.9467 127.792 22.94 127.686 22.94C127.579 22.9267 127.466 22.92 127.346 22.92C126.492 22.92 125.799 23.1667 125.266 23.66C124.746 24.14 124.486 24.8933 124.486 25.92V31H121.366ZM134.883 35.04C133.869 35.04 132.889 34.9133 131.943 34.66C131.009 34.42 130.229 34.0533 129.603 33.56L130.843 31.32C131.296 31.6933 131.869 31.9867 132.563 32.2C133.269 32.4267 133.963 32.54 134.643 32.54C135.749 32.54 136.549 32.2933 137.043 31.8C137.549 31.3067 137.803 30.5733 137.803 29.6V27.98L138.003 25.28L137.963 22.56V20.24H140.923V29.2C140.923 31.2 140.403 32.6733 139.363 33.62C138.323 34.5667 136.829 35.04 134.883 35.04ZM134.403 30.48C133.403 30.48 132.496 30.2667 131.683 29.84C130.883 29.4 130.236 28.7933 129.743 28.02C129.263 27.2333 129.023 26.32 129.023 25.28C129.023 24.2267 129.263 23.3133 129.743 22.54C130.236 21.7533 130.883 21.1467 131.683 20.72C132.496 20.2933 133.403 20.08 134.403 20.08C135.309 20.08 136.109 20.2667 136.803 20.64C137.496 21 138.036 21.5667 138.423 22.34C138.809 23.1 139.003 24.08 139.003 25.28C139.003 26.4667 138.809 27.4467 138.423 28.22C138.036 28.98 137.496 29.5467 136.803 29.92C136.109 30.2933 135.309 30.48 134.403 30.48ZM135.023 27.92C135.569 27.92 136.056 27.8133 136.483 27.6C136.909 27.3733 137.243 27.06 137.483 26.66C137.723 26.26 137.843 25.8 137.843 25.28C137.843 24.7467 137.723 24.2867 137.483 23.9C137.243 23.5 136.909 23.1933 136.483 22.98C136.056 22.7533 135.569 22.64 135.023 22.64C134.476 22.64 133.989 22.7533 133.563 22.98C133.136 23.1933 132.796 23.5 132.543 23.9C132.303 24.2867 132.183 24.7467 132.183 25.28C132.183 25.8 132.303 26.26 132.543 26.66C132.796 27.06 133.136 27.3733 133.563 27.6C133.989 27.8133 134.476 27.92 135.023 27.92ZM150.427 31V28.9L150.227 28.44V24.68C150.227 24.0133 150.02 23.4933 149.607 23.12C149.207 22.7467 148.587 22.56 147.747 22.56C147.173 22.56 146.607 22.6533 146.047 22.84C145.5 23.0133 145.033 23.2533 144.647 23.56L143.527 21.38C144.113 20.9667 144.82 20.6467 145.647 20.42C146.473 20.1933 147.313 20.08 148.167 20.08C149.807 20.08 151.08 20.4667 151.987 21.24C152.893 22.0133 153.347 23.22 153.347 24.86V31H150.427ZM147.147 31.16C146.307 31.16 145.587 31.02 144.987 30.74C144.387 30.4467 143.927 30.0533 143.607 29.56C143.287 29.0667 143.127 28.5133 143.127 27.9C143.127 27.26 143.28 26.7 143.587 26.22C143.907 25.74 144.407 25.3667 145.087 25.1C145.767 24.82 146.653 24.68 147.747 24.68H150.607V26.5H148.087C147.353 26.5 146.847 26.62 146.567 26.86C146.3 27.1 146.167 27.4 146.167 27.76C146.167 28.16 146.32 28.48 146.627 28.72C146.947 28.9467 147.38 29.06 147.927 29.06C148.447 29.06 148.913 28.94 149.327 28.7C149.74 28.4467 150.04 28.08 150.227 27.6L150.707 29.04C150.48 29.7333 150.067 30.26 149.467 30.62C148.867 30.98 148.093 31.16 147.147 31.16ZM162.53 31.16C161.584 31.16 160.77 30.96 160.09 30.56C159.41 30.16 158.89 29.5533 158.53 28.74C158.17 27.9133 157.99 26.8733 157.99 25.62C157.99 24.3533 158.177 23.3133 158.55 22.5C158.937 21.6867 159.47 21.08 160.15 20.68C160.83 20.28 161.624 20.08 162.53 20.08C163.544 20.08 164.45 20.3067 165.25 20.76C166.064 21.2133 166.704 21.8533 167.17 22.68C167.65 23.5067 167.89 24.4867 167.89 25.62C167.89 26.74 167.65 27.7133 167.17 28.54C166.704 29.3667 166.064 30.0133 165.25 30.48C164.45 30.9333 163.544 31.16 162.53 31.16ZM156.17 31V16.16H159.29V22.42L159.09 25.6L159.15 28.8V31H156.17ZM161.99 28.6C162.51 28.6 162.97 28.48 163.37 28.24C163.784 28 164.11 27.66 164.35 27.22C164.604 26.7667 164.73 26.2333 164.73 25.62C164.73 24.9933 164.604 24.46 164.35 24.02C164.11 23.58 163.784 23.24 163.37 23C162.97 22.76 162.51 22.64 161.99 22.64C161.47 22.64 161.004 22.76 160.59 23C160.177 23.24 159.85 23.58 159.61 24.02C159.37 24.46 159.25 24.9933 159.25 25.62C159.25 26.2333 159.37 26.7667 159.61 27.22C159.85 27.66 160.177 28 160.59 28.24C161.004 28.48 161.47 28.6 161.99 28.6ZM169.979 31V16.16H173.099V31H169.979ZM181.335 31.16C180.108 31.16 179.028 30.92 178.095 30.44C177.175 29.96 176.461 29.3067 175.955 28.48C175.448 27.64 175.195 26.6867 175.195 25.62C175.195 24.54 175.441 23.5867 175.935 22.76C176.441 21.92 177.128 21.2667 177.995 20.8C178.861 20.32 179.841 20.08 180.935 20.08C181.988 20.08 182.935 20.3067 183.775 20.76C184.628 21.2 185.301 21.84 185.795 22.68C186.288 23.5067 186.535 24.5 186.535 25.66C186.535 25.78 186.528 25.92 186.515 26.08C186.501 26.2267 186.488 26.3667 186.475 26.5H177.735V24.68H184.835L183.635 25.22C183.635 24.66 183.521 24.1733 183.295 23.76C183.068 23.3467 182.755 23.0267 182.355 22.8C181.955 22.56 181.488 22.44 180.955 22.44C180.421 22.44 179.948 22.56 179.535 22.8C179.135 23.0267 178.821 23.3533 178.595 23.78C178.368 24.1933 178.255 24.6867 178.255 25.26V25.74C178.255 26.3267 178.381 26.8467 178.635 27.3C178.901 27.74 179.268 28.08 179.735 28.32C180.215 28.5467 180.775 28.66 181.415 28.66C181.988 28.66 182.488 28.5733 182.915 28.4C183.355 28.2267 183.755 27.9667 184.115 27.62L185.775 29.42C185.281 29.98 184.661 30.4133 183.915 30.72C183.168 31.0133 182.308 31.16 181.335 31.16ZM192.232 31.16C191.312 31.16 190.425 31.0533 189.572 30.84C188.732 30.6133 188.065 30.3333 187.572 30L188.612 27.76C189.105 28.0667 189.685 28.32 190.352 28.52C191.032 28.7067 191.699 28.8 192.352 28.8C193.072 28.8 193.579 28.7133 193.872 28.54C194.179 28.3667 194.332 28.1267 194.332 27.82C194.332 27.5667 194.212 27.38 193.972 27.26C193.745 27.1267 193.439 27.0267 193.052 26.96C192.665 26.8933 192.239 26.8267 191.772 26.76C191.319 26.6933 190.859 26.6067 190.392 26.5C189.925 26.38 189.499 26.2067 189.112 25.98C188.725 25.7533 188.412 25.4467 188.172 25.06C187.945 24.6733 187.832 24.1733 187.832 23.56C187.832 22.88 188.025 22.28 188.412 21.76C188.812 21.24 189.385 20.8333 190.132 20.54C190.879 20.2333 191.772 20.08 192.812 20.08C193.545 20.08 194.292 20.16 195.052 20.32C195.812 20.48 196.445 20.7133 196.952 21.02L195.912 23.24C195.392 22.9333 194.865 22.7267 194.332 22.62C193.812 22.5 193.305 22.44 192.812 22.44C192.119 22.44 191.612 22.5333 191.292 22.72C190.972 22.9067 190.812 23.1467 190.812 23.44C190.812 23.7067 190.925 23.9067 191.152 24.04C191.392 24.1733 191.705 24.28 192.092 24.36C192.479 24.44 192.899 24.5133 193.352 24.58C193.819 24.6333 194.285 24.72 194.752 24.84C195.219 24.96 195.639 25.1333 196.012 25.36C196.399 25.5733 196.712 25.8733 196.952 26.26C197.192 26.6333 197.312 27.1267 197.312 27.74C197.312 28.4067 197.112 29 196.712 29.52C196.312 30.0267 195.732 30.4267 194.972 30.72C194.225 31.0133 193.312 31.16 192.232 31.16Z" fill="#000033"/>
</svg>
